<svg xmlns="http://www.w3.org/2000/svg" width="21" height="21" fill="none"><symbol id="floppy"><path fill="#000" d="M0 0h1.6154v1.6154H0z"/><path fill="#000" d="M0 1.6152h1.6154v1.6154H0zM0 3.231h1.6154v1.6154H0z"/><path fill="#000" d="M0 4.8462h1.6154v1.6154H0z"/><path fill="#000" d="M0 6.4614h1.6154v1.6154H0zm0 1.6157h1.6154v1.6154H0z"/><path fill="#000" d="M0 9.6924h1.6154v1.6154H0z"/><path fill="#000" d="M0 11.3076h1.6154v1.6154H0z"/><path fill="#000" d="M0 12.9229h1.6154v1.6154H0zm0 1.6157h1.6154v1.6154H0z"/><path fill="#000" d="M0 16.1538h1.6154v1.6154H0z"/><path fill="#000" d="M0 17.769h1.6154v1.6154H0zm0 1.6158h1.6154v1.6154H0zM17.7692 0v1.6154h-1.6154V0z"/><path fill="#000" d="M16.1539 0v1.6154h-1.6154V0zm-1.6154 0v1.6154h-1.6154V0zm-1.6154 0v1.6154h-1.6154V0zm-1.6154 0v1.6154H9.6923V0zM9.6923 0v1.6154H8.077V0zM8.0769 0v1.6154H6.4615V0zM6.4615 0v1.6154H4.8461V0zM4.8461 0v1.6154H3.2307V0z"/><path fill="#000" d="M3.2308 0v1.6154H1.6154V0zm16.1538 1.6152v1.6154h-1.6154V1.6152zM4.846 3.231v1.6153H3.2308V3.231zm.0002-1.6158v1.6154H3.2308V1.6152z"/><path fill="#000" d="M4.8461 4.8462v1.6154H3.2307V4.8462zM16.1539 3.231v1.6154h-1.6154V3.231zm.0001-1.6158v1.6154h-1.6155V1.6152z"/><path fill="#000" d="M16.1539 4.8462v1.6154h-1.6154V4.8462zM12.923 3.231v1.6154h-1.6153V3.231zm.0001-1.6158v1.6154h-1.6154V1.6152z"/><path fill="#000" d="M12.923 4.8462v1.6154h-1.6153V4.8462zm3.231 1.6152v1.6154h-1.6155V6.4614z"/><path fill="#000" d="M14.5385 6.4614v1.6154h-1.6154V6.4614zm-1.6154 0v1.6154h-1.6154V6.4614zm-1.6154 0v1.6154H9.6923V6.4614zm-1.6154 0v1.6154H8.077V6.4614zm-1.6153 0v1.6154H6.4614V6.4614z"/><path fill="#000" d="M6.4616 6.4614v1.6154H4.8462V6.4614zm-1.6154 0v1.6154H3.2308V6.4614zm12.923 4.8462v1.6154h-1.6154v-1.6154z"/><path fill="#000" d="M16.1539 11.3076v1.6154h-1.6154v-1.6154zm-1.6154 0v1.6154h-1.6154v-1.6154zm-1.6154 0v1.6154h-1.6154v-1.6154zm-1.6154 0v1.6154H9.6923v-1.6154zm-1.6154 0v1.6154H8.077v-1.6154zm-1.6154 0v1.6154H6.4615v-1.6154zm-1.6154-.0001v1.6155H4.8461v-1.6155zm-1.6154.0001v1.6154H3.2307v-1.6154z"/><path fill="#000" d="M17.7692 12.9229v1.6154h-1.6154v-1.6154zm-12.9231 0v1.6154H3.2307v-1.6154zm12.9231 1.6157v1.6154h-1.6154v-1.6154zm-12.9231 0v1.6154H3.2307v-1.6154z"/><path fill="#000" d="M17.7692 16.1538v1.6154h-1.6154v-1.6154zm-12.9231 0v1.6154H3.2307v-1.6154z"/><path fill="#000" d="M4.8461 17.769v1.6154H3.2307V17.769zm12.9231 0v1.6154h-1.6154V17.769zm1.6154 1.6158v1.6154h-1.6154v-1.6154z"/><path fill="#000" d="M17.7692 19.3848v1.6154h-1.6154v-1.6154z"/><path fill="#000" d="M16.1539 19.3848v1.6154h-1.6154v-1.6154zm-1.6154 0v1.6154h-1.6154v-1.6154zm-1.6154 0v1.6154h-1.6154v-1.6154zm-1.6154 0v1.6154H9.6923v-1.6154zm-1.6154 0v1.6154H8.077v-1.6154zm-1.6154 0v1.6154H6.4615v-1.6154zm-1.6154-.0001v1.6154H4.8461v-1.6154zm-1.6154.0001v1.6154H3.2307v-1.6154z"/><path fill="#000" d="M3.2308 19.3848v1.6154H1.6154v-1.6154zM21 21h-1.6154v-1.6154H21z"/><path fill="#000" d="M21 19.3848h-1.6154v-1.6154H21zm0-1.6158h-1.6154v-1.6154H21z"/><path fill="#000" d="M21 16.1538h-1.6154v-1.6154H21z"/><path fill="#000" d="M21 14.5386h-1.6154v-1.6154H21zm0-1.6157h-1.6154v-1.6154H21z"/><path fill="#000" d="M21 11.3076h-1.6154V9.6922H21z"/><path fill="#000" d="M21 9.6924h-1.6154V8.077H21z"/><path fill="#000" d="M21 8.0772h-1.6154V6.4618H21zm0-1.6157h-1.6154V4.846H21z"/><path fill="#000" d="M21 4.8462h-1.6154V3.2308H21z"/></symbol></svg>